<?xml version="1.0" encoding="UTF-8"?>
<svg id="_レイヤー_1" data-name="レイヤー 1" xmlns="http://www.w3.org/2000/svg" viewBox="0 0 512 512">
  <defs>
    <style>
      .cls-1 {
        fill: #333;
      }

      .cls-2 {
        fill: #ccc;
      }
    </style>
  </defs>
  <g>
    <rect class="cls-2" x="8" y="8" width="496" height="496"/>
    <path class="cls-1" d="m496,16v480H16V16h480m16-16H0v512h512V0h0Z"/>
  </g>
  <path class="cls-1" d="m0,512V116.18h175.05c18.21,0,35.03,3.82,50.45,11.43,15.42,7.62,28.71,17.66,39.86,30.1,11.15,12.46,19.88,26.58,26.2,42.37,6.32,15.8,9.48,31.69,9.48,47.67,0,25.65-6.41,48.97-19.23,69.97-12.82,21-30.2,36.15-52.12,45.44l90.31,148.85h-86.41l-80.84-132.68h-75.82v132.68H0Zm76.93-200.14h96.45c7.06,0,13.66-1.67,19.79-5.02s11.43-7.89,15.89-13.66c4.46-5.76,7.99-12.54,10.59-20.35,2.6-7.8,3.9-16.17,3.9-25.09s-1.49-17.84-4.46-25.64c-2.98-7.8-6.97-14.58-11.99-20.35-5.02-5.76-10.78-10.22-17.28-13.38-6.51-3.15-13.1-4.74-19.79-4.74h-93.1v128.22Z"/>
</svg>